{"title":"Playing.By.Heart.1998.1080p.BluRay.H264.AAC-RARBG","uid":11861286,"size":2468326991,"categoryP":"video","categoryS":"hd___movies","magnet":"?xt=urn:btih:94e8f45dd20bfc29d40e6a963288a96b04a2b75e&amp;dn=Playing.By.Heart.1998.1080p.BluRay.H264.AAC-RARBG&amp;tr=udp%3A%2F%2Ftracker.openbittorrent.com%3A80&amp;tr=udp%3A%2F%2Fopen.demonii.com%3A1337&amp;tr=udp%3A%2F%2Ftracker.coppersurfer.tk%3A6969&amp;tr=udp%3A%2F%2Fexodus.desync.com%3A6969","seeders":0,"leechers":1,"uploader":"vickey1992","files":4,"time":1430292623,"description":"Video\nID                                       : 1\nFormat                                   : AVC\nFormat/Info                              : Advanced Video Codec\nFormat profile                           : &lt;a class=&quot;__cf_email__&quot; href=&quot;/cdn-cgi/l/email-protection&quot; data-cfemail=&quot;b1f9d8d6d9f1fd859f80&quot;&gt;[email&amp;#160;protected]&lt;/a&gt;&lt;script cf-hash='f9e31' type=&quot;text/javascript&quot;&gt;\n/* &lt;![CDATA[ */!function(){try{var t=&quot;currentScript&quot;in document?document.currentScript:function(){for(var t=document.getElementsByTagName(&quot;script&quot;),e=t.length;e--;)if(t[e].getAttribute(&quot;cf-hash&quot;))return t[e]}();if(t&amp;&amp;t.previousSibling){var e,r,n,i,c=t.previousSibling,a=c.getAttribute(&quot;data-cfemail&quot;);if(a){for(e=&quot;&quot;,r=parseInt(a.substr(0,2),16),n=2;a.length-n;n+=2)i=parseInt(a.substr(n,2),16)^r,e+=String.fromCharCode(i);e=document.createTextNode(e),c.parentNode.replaceChild(e,c)}}}catch(u){}}();/* ]]&gt; */&lt;/script&gt;\nFormat settings, CABAC                   : Yes\nFormat settings, ReFrames                : 4 frames\nCodec ID                                 : avc1\nCodec ID/Info                            : Advanced Video Coding\nDuration                                 : 2h 0mn\nBit rate                                 : 2 500 Kbps\nWidth                                    : 1 920 pixels\nHeight                                   : 992 pixels\nDisplay aspect ratio                     : 1.935\nFrame rate mode                          : Constant\nFrame rate                               : 24.000 fps\nColor space                              : YUV\nChroma subsampling                       : 4:2:0\nBit depth                                : 8 bits\nScan type                                : Progressive\nBits/(Pixel*Frame)                       : 0.055\nStream size                              : 2.10 GiB (92%)\nWriting library                          : x264 core 144 r2525M 40bb568\nEncoding settings                        : cabac=1 / ref=4 / deblock=1:-1:-1 / analyse=0x3:0x113 / me=umh / subme=9 / psy=1 / psy_rd=1.00:0.15 / mixed_ref=1 / me_range=24 / chroma_me=1 / trellis=2 / 8x8dct=1 / cqm=0 / deadzone=21,11 / fast_pskip=1 / chroma_qp_offset=-3 / threads=32 / lookahead_threads=4 / sliced_threads=0 / nr=0 / decimate=1 / interlaced=0 / bluray_compat=0 / constrained_intra=0 / bframes=3 / b_pyramid=2 / b_adapt=1 / b_bias=0 / direct=1 / weightb=1 / open_gop=0 / weightp=2 / keyint=250 / keyint_min=25 / scenecut=40 / intra_refresh=0 / rc_lookahead=50 / rc=2pass / mbtree=1 / bitrate=2500 / ratetol=1.0 / qcomp=0.60 / qpmin=0 / qpmax=69 / qpstep=4 / cplxblur=20.0 / qblur=0.5 / vbv_maxrate=31250 / vbv_bufsize=31250 / nal_hrd=none / filler=0 / ip_ratio=1.40 / aq=3:1.00\nEncoded date                             : UTC 1904-01-01 00:00:00\nTagged date                              : UTC 1904-01-01 00:00:00\n\nAudio\nID                                       : 2\nFormat                                   : AAC\nFormat/Info                              : Advanced Audio Codec\nFormat profile                           : LC\nCodec ID                                 : 40\nDuration                                 : 2h 0mn\nBit rate mode                            : Constant\nBit rate                                 : 224 Kbps\nChannel(s)                               : 2 channels\nChannel(s)_Original                      : 6 channels\nChannel positions                        : Front: L C R, Side: L R, LFE\nSampling rate                            : 48.0 KHz\nCompression mode                         : Lossy\nStream size                              : 193 MiB (8%)\nLanguage                                 : English\nEncoded date                             : UTC 1904-01-01 00:00:00\nTagged date                              : UTC 1904-01-01 00:00:00\n\nMenu #1\nID                                       : 3\nCodec ID                                 : text\nDuration                                 : 2h 0mn\nLanguage                                 : English\nEncoded date                             : UTC 1904-01-01 00:00:00\nTagged date                              : UTC 1904-01-01 00:00:00\nBit rate mode                            : CBR\n00:00:00.000                             : 00:00:00.000\n00:07:42.501                             : 00:07:42.458\n00:15:56.626                             : 00:15:56.583\n00:21:22.501                             : 00:21:22.458\n00:31:16.626                             : 00:31:16.583\n00:38:55.043                             : 00:38:55.000\n00:47:53.001                             : 00:47:52.958\n00:54:00.168                             : 00:54:00.125\n01:02:17.460                             : 01:02:17.417\n01:11:04.793                             : 01:11:04.750\n01:20:32.501                             : 01:20:32.458\n01:25:50.710                             : 01:25:50.667\n01:30:52.335                             : 01:30:52.292\n01:42:00.710                             : 01:42:00.667\n01:49:55.376                             : 01:49:55.333\n\nMenu #2\n00:00:00.043                             : 00:00:00.000\n00:07:42.501                             : 00:07:42.458\n00:15:56.626                             : 00:15:56.583\n00:21:22.501                             : 00:21:22.458\n00:31:16.626                             : 00:31:16.583\n00:38:55.043                             : 00:38:55.000\n00:47:53.001                             : 00:47:52.958\n00:54:00.168                             : 00:54:00.125\n01:02:17.460                             : 01:02:17.417\n01:11:04.793                             : 01:11:04.750\n01:20:32.501                             : 01:20:32.458\n01:25:50.710                             : 01:25:50.667\n01:30:52.335                             : 01:30:52.292\n01:42:00.710                             : 01:42:00.667\n01:49:55.376                             : 01:49:55.333","torrent":{"xt":"urn:btih:94e8f45dd20bfc29d40e6a963288a96b04a2b75e","amp;dn":"Playing.By.Heart.1998.1080p.BluRay.H264.AAC-RARBG","amp;tr":["udp%3A%2F%2Ftracker.openbittorrent.com%3A80","udp%3A%2F%2Fopen.demonii.com%3A1337","udp%3A%2F%2Ftracker.coppersurfer.tk%3A6969","udp%3A%2F%2Fexodus.desync.com%3A6969"],"infoHash":"94e8f45dd20bfc29d40e6a963288a96b04a2b75e","infoHashBuffer":{"type":"Buffer","data":[148,232,244,93,210,11,252,41,212,14,106,150,50,136,169,107,4,162,183,94]},"announce":[],"urlList":[]}}